<svg width="50" height="50" viewBox="0 0 50 50" fill="none" xmlns="http://www.w3.org/2000/svg">
<path d="M0 25C0 11.1895 11.1895 0 25 0C38.8105 0 50 11.1895 50 25C50 38.8105 38.8105 50 25 50C11.1895 50 0 38.8105 0 25ZM23.2863 13.5181L9.62702 27.1774C8.67944 28.125 8.67944 29.6573 9.62702 30.5948L11.3407 32.3085C12.2883 33.2561 13.8206 33.2561 14.7581 32.3085L25 22.0665L35.2419 32.3085C36.1895 33.2561 37.7218 33.2561 38.6593 32.3085L40.373 30.5948C41.3206 29.6472 41.3206 28.1149 40.373 27.1774L26.7137 13.5181C25.7661 12.5706 24.2339 12.5706 23.2863 13.5181Z" fill="black"/>
</svg>
