<svg width="60" height="39" viewBox="-2 -5 61 45"  fill="none" xmlns="http://www.w3.org/2000/svg">
<path d="M0.766875 33.76C0.766875 32.5867 1.19354 31.6 2.04688 30.8C2.95354 29.9467 3.94021 29.52 5.00688 29.52C5.96688 29.52 6.87354 29.9467 7.72688 30.8C8.63354 31.6 9.08688 32.5867 9.08688 33.76C9.08688 35.04 8.63354 36.08 7.72688 36.88C6.87354 37.6267 5.96688 38 5.00688 38C3.94021 38 2.95354 37.6267 2.04688 36.88C1.19354 36.08 0.766875 35.04 0.766875 33.76Z" fill="#88B5DF"/>
<path d="M24.5884 38.48C22.3164 38.48 20.3644 38.032 18.7324 37.136C17.1004 36.208 15.8364 34.96 14.9404 33.392C14.0764 31.792 13.6444 29.968 13.6444 27.92C13.6444 25.968 14.1404 24.192 15.1324 22.592C16.1244 20.992 17.4524 19.712 19.1164 18.752C20.7804 17.792 22.6364 17.312 24.6844 17.312C27.3084 17.312 29.4844 18.08 31.2124 19.616C32.9404 21.152 34.1084 23.264 34.7164 25.952L18.3484 31.712L17.2924 29.072L30.7324 24.176L29.7724 24.8C29.3884 23.744 28.7484 22.832 27.8524 22.064C26.9564 21.264 25.7884 20.864 24.3484 20.864C23.1324 20.864 22.0444 21.168 21.0844 21.776C20.1244 22.352 19.3724 23.152 18.8284 24.176C18.2844 25.2 18.0124 26.368 18.0124 27.68C18.0124 29.056 18.3004 30.272 18.8764 31.328C19.4524 32.352 20.2364 33.168 21.2284 33.776C22.2524 34.352 23.4044 34.64 24.6844 34.64C25.5484 34.64 26.3804 34.48 27.1804 34.16C28.0124 33.84 28.7804 33.424 29.4844 32.912L31.5484 36.224C30.5564 36.896 29.4364 37.44 28.1884 37.856C26.9724 38.272 25.7724 38.48 24.5884 38.48ZM40.3099 38V0.847998H44.6779V22.736L44.5819 21.92C45.2539 20.608 46.2779 19.52 47.6539 18.656C49.0619 17.792 50.7099 17.36 52.5979 17.36C54.4859 17.36 56.0219 17.92 57.2059 19.04C58.4219 20.128 59.0459 21.552 59.0779 23.312V38H54.5659V24.896C54.5339 23.808 54.2139 22.928 53.6059 22.256C53.0299 21.552 52.1179 21.2 50.8699 21.2C49.7179 21.2 48.6779 21.536 47.7499 22.208C46.8219 22.848 46.0859 23.728 45.5419 24.848C45.0299 25.968 44.7739 27.248 44.7739 28.688V38H40.3099Z" fill="black"/>
</svg>
